PathFileType	4	(X/Y/Z)	5_coords_data.trc
DataRate	CameraRate	NumFrames	NumMarkers	Units	OrigDataRate	OrigDataStartFrame	OrigNumFrames
30.0	30.0	7	21	m	30.0	1	67
Frame#	Time	THUMB_TIP	THUMB_IP	THUMB_MCP	THUMB_CMC	INDEX_TIP	INDEX_DIP	INDEX_PIP	INDEX_MCP	MIDDLE_TIP	MIDDLE_DIP	MIDDLE_PIP	MIDDLE_MCP	RING_TIP	RING_DIP	RING_PIP	RING_MCP	PINKY_TIP	PINKY_DIP	PINKY_PIP	PINKY_MCP	WRIST
X1	Y1	Z1	X2	Y2	Z2	X3	Y3	Z3	X4	Y4	Z4	X5	Y5	Z5	X6	Y6	Z6	X7	Y7	Z7	X8	Y8	Z8	X9	Y9	Z9	X10	Y10	Z10	X11	Y11	Z11	X12	Y12	Z12	X13	Y13	Z13	X14	Y14	Z14	X15	Y15	Z15	X16	Y16	Z16	X17	Y17	Z17	X18	Y18	Z18	X19	Y19	Z19	X20	Y20	Z20	X21	Y21	Z21
0	0.0	-0.007940730094909669	-0.12447599792480468	0.9976370239257812	-0.01787120056152344	-0.10599099731445312	1.010469970703125	-0.03563520050048828	-0.09623400115966797	1.0343599853515626	-0.038964298248291014	-0.06735489654541016	1.0456099853515626	-0.017605899810791015	-0.09817680358886718	0.9186510009765625	-0.030732799530029296	-0.09502020263671875	0.9371610107421875	-0.043227699279785155	-0.09142320251464844	0.9555570068359375	-0.05512350082397461	-0.08306439971923828	0.988010009765625	-0.010079700469970703	-0.06651950073242187	0.9049509887695313	-0.024579599380493165	-0.06641529846191406	0.9244940185546875	-0.042995498657226565	-0.06649330139160156	0.9491929931640625	-0.05959239959716797	-0.06214039993286133	0.9812689819335938	-0.008176959991455079	-0.04365179824829102	0.9108109741210938	-0.02206369972229004	-0.04328110122680664	0.9287269897460938	-0.04066239929199219	-0.04341809844970703	0.9518070068359376	-0.055799301147460935	-0.04234640121459961	0.982125	-0.009485210418701172	-0.017535499572753906	0.9349539794921875	-0.022443700790405273	-0.019375499725341798	0.9508870239257813	-0.03504190063476562	-0.021642999649047853	0.9655170288085938	-0.04440879821777344	-0.026865100860595702	0.988551025390625	-0.057274200439453124	-0.03640119934082031	1.0574300537109376
1	0.03333333333333333	-0.008766889572143555	-0.12419200134277343	0.9972160034179688	-0.018354299545288087	-0.10508699798583984	1.0119199829101562	-0.03632809829711914	-0.09588059997558594	1.0353900146484376	-0.0417682991027832	-0.06469850158691406	1.0453199462890626	-0.01757110023498535	-0.09835099792480469	0.919739013671875	-0.03085540008544922	-0.09516840362548828	0.9376649780273437	-0.0440807991027832	-0.09145130157470703	0.9565390014648437	-0.0560343017578125	-0.08260970306396484	0.9909390258789063	-0.010129300117492676	-0.06644840240478515	0.9059320068359376	-0.024233299255371092	-0.06670120239257812	0.9257039794921875	-0.04172750091552734	-0.06555970001220703	0.949656005859375	-0.05771179962158203	-0.06182809829711914	0.9851279907226562	-0.00834650993347168	-0.04330939865112305	0.9120989990234375	-0.02260070037841797	-0.04227090072631836	0.93047998046875	-0.03967720031738281	-0.041804798126220705	0.9519400024414062	-0.05387250137329101	-0.042884201049804685	0.9868670043945312	-0.010189299583435058	-0.017832700729370116	0.9356480102539062	-0.023047500610351563	-0.019024700164794923	0.9511699829101562	-0.03408840179443359	-0.021416200637817382	0.96622802734375	-0.04458700180053711	-0.026562799453735353	0.9900540161132813	-0.05910770034790039	-0.03488430023193359	1.05902001953125
2	0.06666666666666667	-0.00870913028717041	-0.12402400207519532	0.99702099609375	-0.01828860092163086	-0.10501599884033203	1.01172998046875	-0.03613150024414063	-0.09591529846191406	1.03522998046875	-0.04169240188598633	-0.06468679809570313	1.0453699951171875	-0.01752669906616211	-0.09817620086669922	0.9197529907226563	-0.030819700241088866	-0.09502290344238282	0.9376719970703125	-0.04405189895629883	-0.0913561019897461	0.956583984375	-0.055897998809814456	-0.08251139831542968	0.9911019897460938	-0.010230799674987794	-0.06610659790039063	0.9059299926757812	-0.024315299987792968	-0.06645610046386718	0.925719970703125	-0.04180580139160156	-0.0653770980834961	0.949719970703125	-0.05773569869995117	-0.061757198333740236	0.9853070068359375	-0.008555600166320801	-0.042981399536132815	0.9121019897460938	-0.022783700942993163	-0.04201549911499024	0.9305399780273438	-0.039818401336669924	-0.041634700775146485	0.9520170288085937	-0.05411650085449219	-0.04285179901123047	0.9869190063476563	-0.010613800048828125	-0.01754490089416504	0.9355980224609375	-0.02341309928894043	-0.018833900451660158	0.951197021484375	-0.03435390090942383	-0.021271200180053712	0.9662940063476563	-0.04470999908447266	-0.0265132999420166	0.9901920166015625	-0.059018001556396485	-0.03494540023803711	1.0591099853515624
3	0.1	-0.008681650161743165	-0.12398300170898438	0.9970399780273438	-0.01829960060119629	-0.10497699737548828	1.01177001953125	-0.036159900665283205	-0.09588369750976562	1.03525	-0.04171419906616211	-0.0646626968383789	1.0453499755859375	-0.017850099563598634	-0.09839150238037109	0.9197020263671875	-0.0310531005859375	-0.0952041015625	0.9377059936523438	-0.04420280075073242	-0.09142459869384766	0.9567230224609375	-0.055945899963378905	-0.08253749847412109	0.9910419921875	-0.010449399948120117	-0.06606759643554687	0.905916015625	-0.02453089904785156	-0.06642479705810547	0.9257109985351563	-0.041978000640869144	-0.06539350128173828	0.9497360229492188	-0.0577864990234375	-0.06176110076904297	0.9852249755859375	-0.008728079795837403	-0.04297529983520508	0.9120599975585938	-0.0229197998046875	-0.042010501861572264	0.930541015625	-0.039894100189208984	-0.04163140106201172	0.952072021484375	-0.05400830078125	-0.04283810043334961	0.9869609985351563	-0.010706999778747558	-0.017357900619506837	0.935614990234375	-0.023468000411987305	-0.018700399398803712	0.9512550048828124	-0.03439910125732422	-0.02119420051574707	0.966375	-0.0447067985534668	-0.02647380065917969	0.9902210083007813	-0.059042098999023435	-0.03492689895629883	1.05918994140625
4	0.13333333333333333	-0.00876743984222412	-0.12411900329589844	0.9972760009765625	-0.018411399841308594	-0.10508899688720703	1.01197998046875	-0.036289100646972654	-0.09596700286865234	1.0354100341796875	-0.041795799255371094	-0.06473760223388672	1.0454300537109376	-0.01824959945678711	-0.09917849731445312	0.91981201171875	-0.03140360069274902	-0.09576799774169922	0.9378770141601562	-0.0444911003112793	-0.09187760162353516	0.9568800048828126	-0.056125900268554685	-0.08262169647216797	0.9911950073242187	-0.010591099739074707	-0.06617120361328124	0.905968017578125	-0.024638500213623047	-0.06652359771728515	0.925843017578125	-0.042089099884033206	-0.06544120025634766	0.9498709716796875	-0.05794490051269531	-0.06179259872436523	0.985448974609375	-0.00867959976196289	-0.04302370071411133	0.9122080078125	-0.022901100158691408	-0.04204339981079101	0.9306749877929688	-0.039922599792480466	-0.041658000946044924	0.9521929931640625	-0.05408380126953125	-0.042887001037597655	0.9871220092773437	-0.010364100456237793	-0.017101999282836913	0.9359240112304688	-0.023037099838256837	-0.01862310028076172	0.9515469970703125	-0.03394269943237305	-0.021235300064086915	0.9666409912109375	-0.044488201141357424	-0.026633399963378906	0.9902769775390625	-0.05913629913330078	-0.03497249984741211	1.0592099609375
5	0.16666666666666666	-0.00879263973236084	-0.1241780014038086	0.99739599609375	-0.018482799530029296	-0.10515299987792968	1.0120800170898439	-0.03637400054931641	-0.09601390075683594	1.03552001953125	-0.04186849975585937	-0.06473609924316406	1.04547998046875	-0.018164100646972655	-0.09956710052490235	0.9200390014648437	-0.031364200592041015	-0.09612049865722656	0.938031005859375	-0.044434501647949216	-0.09213870239257813	0.9570189819335938	-0.05616120147705078	-0.08267220306396485	0.991333984375	-0.010589699745178222	-0.0662135009765625	0.906052978515625	-0.024658700942993165	-0.06656320190429688	0.9259110107421875	-0.04211080169677734	-0.06548529815673829	0.9499520263671875	-0.058048599243164065	-0.061862701416015624	0.9855239868164063	-0.008643739700317383	-0.043081100463867185	0.9123359985351562	-0.02288520050048828	-0.042143600463867184	0.9308140258789063	-0.039883399963378904	-0.04174140167236328	0.9523140258789062	-0.05406650161743164	-0.0429651985168457	0.98714697265625	-0.010197999954223633	-0.01701420021057129	0.9360689697265625	-0.022785200119018554	-0.018633800506591795	0.9517899780273438	-0.03371419906616211	-0.02129199981689453	0.9668820190429688	-0.044395301818847654	-0.02676930046081543	0.99043701171875	-0.05919049835205078	-0.035065898895263674	1.05922998046875
6	0.2	-0.00868599033355713	-0.12398100280761719	0.9973779907226562	-0.01837730026245117	-0.10503199768066407	1.0120499877929687	-0.03625740051269531	-0.0959645004272461	1.03547998046875	-0.041950599670410156	-0.06466439819335937	1.0454599609375	-0.017904199600219727	-0.09954070281982422	0.9201929931640624	-0.031120399475097656	-0.09609519958496093	0.9381589965820313	-0.044247398376464846	-0.09205850219726562	0.9570750122070313	-0.0560526008605957	-0.08258070373535156	0.9912969970703125	-0.010591699600219726	-0.06604060363769532	0.9060859985351563	-0.024683799743652344	-0.06643370056152344	0.925947021484375	-0.042145401000976565	-0.0654051971435547	0.9499739990234375	-0.05799990081787109	-0.06179309844970703	0.9855	-0.008689590454101562	-0.04293109893798828	0.9123779907226562	-0.022937799453735353	-0.04199869918823242	0.930844970703125	-0.03996780014038086	-0.04165240097045898	0.9523480224609375	-0.05413809967041015	-0.04288669967651367	0.9871519775390625	-0.010297800064086914	-0.01688279914855957	0.9360570068359375	-0.022873899459838868	-0.01852549934387207	0.951822021484375	-0.033815498352050784	-0.02121999931335449	0.9669199829101562	-0.04451499938964844	-0.026683799743652342	0.9904169921875	-0.05929069900512695	-0.03492990112304688	1.0591400146484375
